<?xml version="1.0" encoding="UTF-8"?>
<svg id="Ebene_1" xmlns="http://www.w3.org/2000/svg" version="1.1" viewBox="0 0 475 102.1">
    <!-- Generator: Adobe Illustrator 29.2.1, SVG Export Plug-In . SVG Version: 2.1.0 Build 116)  -->
    <defs>
        <style>
            .st0 {
            fill: #222832;
            }

            .st1 {
            fill: #e5352c;
            }

            .st2 {
            fill: #fff;
            }
        </style>
    </defs>
    <rect class="st0" x="-1.4" y="-1.9" width="480.4" height="105.8"/>
    <g>
        <path class="st2" d="M244.7,20.5h2.8v19.4h-2.8v-19.4Z"/>
        <path class="st2" d="M255.2,20.5h3.8l8.6,15.6h.1v-15.6h2.8v19.4h-3.6l-8.8-16h-.1v16h-2.8v-19.4h0Z"/>
        <path class="st2"
              d="M287,23.4c-1.4-.6-2.2-.8-3.6-.8s-3.4.6-3.4,2.6c0,3.7,8.4,2.9,8.4,9.3s-3.2,5.8-7.1,5.8-2.7-.4-4-.8l.3-2.6c1,.4,2.6,1,4,1s3.8-.9,3.8-3.2c0-4.3-8.4-3.1-8.4-9.2s2.7-5.3,6.2-5.3,2.8.2,4.1.7l-.3,2.5Z"/>
        <path class="st2" d="M298.9,22.9h-6v-2.5h14.9v2.5h-6v17h-2.8v-17h-.1Z"/>
        <path class="st2" d="M313.4,20.5h2.8v19.4h-2.8v-19.4Z"/>
        <path class="st2" d="M327.8,22.9h-6v-2.5h14.8v2.5h-6v17h-2.8v-17h0Z"/>
        <path class="st2"
              d="M357.3,31.8c0,5.5-2.8,8.4-7.5,8.4s-7.5-2.9-7.5-8.4v-11.3h2.8v11c0,3.7,1.2,6.3,4.8,6.3s4.8-2.6,4.8-6.3v-11h2.8v11.3s-.2,0-.2,0Z"/>
        <path class="st2" d="M369,22.9h-6v-2.5h14.9v2.5h-6v17h-2.8v-17h-.1Z"/>
        <path class="st2" d="M392.6,20.5h10.3v2.5h-7.5v5.7h7.2v2.5h-7.2v8.9h-2.8v-19.6Z"/>
        <path class="st2"
              d="M424.2,31.8c0,5.5-2.8,8.4-7.5,8.4s-7.5-2.9-7.5-8.4v-11.3h2.8v11c0,3.7,1.2,6.3,4.8,6.3s4.8-2.6,4.8-6.3v-11h2.8v11.3s-.2,0-.2,0ZM413.1,16.1h2.6v2.8h-2.6v-2.8ZM417.7,16.1h2.6v2.8h-2.6v-2.8Z"/>
        <path class="st2"
              d="M431.8,20.5h4.8c3.8,0,7.5.6,7.5,5.3s-1.8,4-4,4.4h0c.9.3,1.3.8,1.9,2l3.7,7.7h-3.2l-3-6.7c-.9-1.9-1.8-1.9-3.3-1.9h-1.6v8.6h-2.8v-19.4h0ZM434.6,28.8h2.4c2.6,0,4.2-1.2,4.2-3s-1.3-2.9-3.9-2.9h-2.7v5.9h0Z"/>
        <path class="st2"
              d="M253.6,64.8c-1.4-.6-2.2-.8-3.6-.8s-3.4.6-3.4,2.6c0,3.7,8.4,2.9,8.4,9.3s-3.2,5.8-7.1,5.8-2.7-.4-4-.8l.3-2.6c1,.4,2.6.9,4,.9s3.8-.9,3.8-3.2c0-4.3-8.4-3.1-8.4-9.2s2.7-5.3,6.2-5.3,2.8.2,4.1.7l-.3,2.6Z"/>
        <path class="st2"
              d="M269.7,61.6c5.9,0,9.4,4.3,9.4,10.1s-3.4,10.1-9.4,10.1-9.4-4.2-9.4-10.1,3.5-10.1,9.4-10.1ZM269.7,79.2c4.5,0,6.4-3.7,6.4-7.6s-2.1-7.6-6.4-7.6-6.4,3.7-6.4,7.6,1.9,7.6,6.4,7.6Z"/>
        <path class="st2" d="M285.8,61.9h2.8v17h8.1v2.4h-10.9v-19.4Z"/>
        <path class="st2"
              d="M309.6,61.9h2.9l8.2,19.4h-3l-2-4.9h-9.5l-2,4.9h-2.9l8.3-19.4ZM311,64.5l-3.9,9.6h7.7l-3.8-9.6Z"/>
        <path class="st2"
              d="M326.3,61.9h4.8c3.8,0,7.5.6,7.5,5.3s-1.8,4-4,4.4h0c.9.4,1.3.9,1.9,2l3.7,7.7h-3.2l-3-6.7c-.9-1.9-1.8-1.9-3.3-1.9h-1.7v8.6h-2.8v-19.4h.1ZM329.1,70.3h2.4c2.6,0,4.2-1.2,4.2-3s-1.3-2.9-3.9-2.9h-2.7v5.9Z"/>
        <path class="st2" d="M350,64.4h-6v-2.4h14.9v2.4h-6v17h-2.8v-17h-.1Z"/>
        <path class="st2" d="M364.5,61.9h10.9v2.4h-8.1v5.7h7.4v2.4h-7.4v6.4h8.1v2.4h-10.9v-19.3Z"/>
        <path class="st2"
              d="M395.5,65.1c-1.2-.7-2.6-1.1-4-1.1-4.5,0-7.5,3.2-7.5,7.6s3.3,7.6,7.3,7.6,3.3-.4,4.2-.9l.2,2.7c-1.5.6-3.3.7-4.4.7-6.1,0-10.2-3.9-10.2-10.1s4.3-10,10.3-10,3,.2,4.4.8l-.3,2.7Z"/>
        <path class="st2" d="M401.9,61.9h2.8v8.1h9.3v-8.1h2.8v19.4h-2.8v-8.8h-9.3v8.8h-2.8v-19.4Z"/>
        <path class="st2" d="M424.6,61.9h3.8l8.6,15.6h.1v-15.6h2.8v19.4h-3.6l-8.8-16h-.1v16h-2.8v-19.4h0Z"/>
        <path class="st2" d="M447.5,61.9h2.8v19.4h-2.8v-19.4Z"/>
        <path class="st2" d="M458,61.9h2.8v8.5l8.3-8.5h3.7l-9.1,9.2,9.8,10.2h-4.1l-8.7-9.5v9.5h-2.8v-19.4h.1Z"/>
    </g>
    <path class="st1" d="M-1.4,34.1h184.6s-35.7-14-88.8-14S-1.4,34.1-1.4,34.1Z"/>
    <path class="st2"
          d="M125.5,49.7c-2.1-1-5-1.9-9-1.9s-7.9.6-7.9,3.9c0,5.8,15.9,3.6,15.9,16s-10.5,14.2-20,14.2-9.1-1-12.7-2.1l2.6-8.3c2.2,1.4,6.5,2.3,10.1,2.3s8.7-.6,8.7-4.9c0-6.6-15.9-4.1-15.9-15.6s9.2-13.7,18.2-13.7,9.8.5,12.5,1.8l-2.5,8.3Z"/>
    <path class="st2"
          d="M145.8,48.2h3.2c2.9,0,5.6.8,5.6,4.7s-3.9,6.4-8.3,6.4h-2.9l2.4-11.1ZM127.8,81.4h10.9l3.1-14.3h5.6c9.8,0,18.2-5.2,18.2-15.3s-9-11.2-18-11.2h-11l-8.8,40.8Z"/>
    <path class="st2" d="M172.9,40.5h27.4l-1.5,7.7h-16.6l-2.1,9h16.1l-1.6,7.7h-15.8l-3.4,16.5h-11l8.5-40.9Z"/>
</svg>